<svg id="Layer_1" data-name="Layer 1" xmlns="http://www.w3.org/2000/svg" viewBox="0 0 1280 1024"><defs><style>.cls-1{fill:#f6f6f6;}.cls-2{fill:#222831;}.cls-3{fill:#393e46;}.cls-4{fill:#f7c684;}.cls-5{fill:#f89d4e;}.cls-6{fill:#00adb5;}</style></defs><title>laptop</title><path class="cls-1" d="M1692.77,922.73v-829A93.71,93.71,0,0,0,1599.06,0H266a93.72,93.72,0,0,0-93.72,93.73v829Z"/><path class="cls-2" d="M1726.56,1022.75H129.45a118.55,118.55,0,0,1-92-43.82L.34,922.73H1850l-39.94,56.2c-22.51,27.72-47.78,43.82-83.5,43.82Z"/><polygon class="cls-3" points="1609.32 922.73 1609.32 84.22 246.71 84.22 246.71 922.73 1609.32 922.73 1609.32 922.73"/><polygon class="cls-3" points="1100.95 956.76 749.37 956.76 749.37 921.6 1100.95 921.6 1100.95 956.76 1100.95 956.76"/><polygon class="cls-2" points="1610.42 140.88 245.95 140.88 245.95 80.78 1610.42 80.78 1610.42 140.88 1610.42 140.88"/><path class="cls-3" d="M948.36,38.51a19.25,19.25,0,1,1-19.25-19.25,19.26,19.26,0,0,1,19.25,19.25Z"/><path class="cls-4" d="M297.1,110.5a12.56,12.56,0,1,1-12.56-12.56A12.56,12.56,0,0,1,297.1,110.5Z"/><path class="cls-5" d="M343.14,110.5a12.56,12.56,0,1,1-12.56-12.56,12.57,12.57,0,0,1,12.56,12.56Z"/><path class="cls-6" d="M389.18,110.5a12.55,12.55,0,1,1-12.56-12.56,12.56,12.56,0,0,1,12.56,12.56Z"/></svg>